<?xml version="1.0" standalone="no"?>
<!DOCTYPE svg PUBLIC "-//W3C//DTD SVG 1.1//EN" "http://www.w3.org/Graphics/SVG/1.1/DTD/svg11.dtd" >
<!--
2013-9-30: Created.
-->
<svg>
<metadata>
Created by iconfont
</metadata>
<defs>

<font id="iconfont" horiz-adv-x="1024" >
  <font-face
    font-family="iconfont"
    font-weight="500"
    font-stretch="normal"
    units-per-em="1024"
    ascent="896"
    descent="-128"
  />
    <missing-glyph />
    
    <glyph glyph-name="shaixuan" unicode="&#58880;" d="M610.55532725 359.51135899999997c0-13.61678939 11.04061835-24.65345575 24.65740775-24.65345577h197.5746655c13.61678939 0 24.65345575 11.03666636 24.65345498 24.65345577 0 13.62074137-11.03745662 24.65740775-24.65345498 24.6574085H635.212735c-13.61757964 0-24.65740775-11.03666636-24.65740775-24.6574085zM832.7874005 285.62292626H635.212735c-13.61757964 0-24.65740775-11.03587612-24.65740775-24.6566175 0-13.61678939 11.04061835-24.65345575 24.65740775-24.65345575h197.5746655c13.61678939 0 24.65345575 11.03666636 24.65345498 24.65345575 0.00079025 13.62074137-11.03666636 24.65661749-24.65345498 24.6566175zM832.7874005 186.54983525H635.212735c-13.61757964 0-24.65740775-11.03587612-24.65740775-24.6566175 0-13.61678939 11.04061835-24.65345575 24.65740775-24.65345575h197.5746655c13.61678939 0 24.65345575 11.03666636 24.65345498 24.65345575 0.00079025 13.62074137-11.03666636 24.65661749-24.65345498 24.6566175zM742.55581557 654.02086973l0.65372653 0.65372575-0.65372653-0.65372575zM743.36842809 654.83348225l-0.15888599-0.15967702c0.054543 0.05612425 0.09880975 0.09959999 0.15888599 0.15967702zM742.19298582 653.65803998c-0.11620051-0.11541026-0.09722926-0.09722926 1e-8 0zM785.86931601 617.99716536c14.16854365 17.00399168 22.66856348 39.6725544 22.66856349 62.33637488 0 56.67417458-42.50009768 99.17348124-96.33724373 99.17348201H212.84800697c-53.83714605 0-96.33724297-42.50009768-96.33724296-96.33724373 0-22.66856348 8.50001984-45.33712621 22.66777247-62.33637489 0-2.83702852 224.19720402-218.17849746 224.19720326-218.17849745v-240.90397468h0.05454377c0.10039101-13.5535514 11.11571386-24.51195975 24.69218848-24.51195973 13.64050363 0 24.6977225 11.05721887 24.69772249 24.69772249 0 0.44187801-0.01264775 0.87980326-0.03557174 1.31535702v247.9020845c0 8.50001984-2.83149528 14.16854365-8.50001908 19.8362772l-219.76894097 221.011574-2.83544804 2.83149527c-8.50001984 8.50001984-11.33151512 17.00082917-11.33151435 28.33708728 0 22.66777247 19.83232522 42.50009768 42.50009691 42.50009692h499.35183856c22.66935374 0 42.50088793-19.83232522 42.50088792-42.50009692 0-11.33625813-5.66378157-19.8362772-11.33230536-28.33708728L520.50239058 425.32267942c-5.66773356-5.66773356-8.50001984-11.3307241-8.50001907-19.8362772v-391.58506096h0.04268548c-0.00632349-0.23714402-0.01739076-0.472706-0.01738998-0.71064101 0-13.64050363 11.05721887-24.6977225 24.69693148-24.6977225 13.64050363 0 24.6977225 11.05721887 24.6977225 24.6977225 0 0.22212476-0.01106649 0.44266825-0.01659973 0.66321175h0.01659973V394.15488711L783.03782074 615.1656700799999l2.83149527 2.83149528z"  horiz-adv-x="1024" />

    
    <glyph glyph-name="xiangshang" unicode="&#58915;" d="M506.17170443 793.99806181h538.07189105c27.11616398 0 39.7702747-9.63695502 39.77027471-31.3292982s-13.86038613-30.12743623-39.77027471-30.12743509h-538.07189105c-24.70949888 0-39.7702747 8.43509419-39.77027471 30.12743509 0.60313714 21.69234205 15.06077582 31.32929707 39.77027471 31.3292982z m571.21648299-456.73222598c-15.06666041-15.06077582-32.54145593-8.43509419-47.60370176 6.63156621l-222.3428335 224.75096747V199.03709754c0-20.48459662-10.8432293-36.75311787-31.32929706-36.75311786s-28.32390941 16.26852125-28.32390827 36.75311786V570.45336748L524.24375249 345.70240002c-15.06077582-15.06224697-34.34498275-21.69234205-48.80409258-6.62568278-15.06666041 15.06077582-8.43509419 34.34498275 6.62568277 48.80409373l263.91957618 266.92937841s16.2670501 19.28420693 31.32929821 19.28420694c12.05538816 0 28.32243826-17.47479552 28.32243712-17.47479552l265.72310414-268.73878983c13.86038613-16.26852125 21.08920491-34.3464539 6.02842909-50.61497514z m0 0M776.50071734 72.28561978000005m-28.84319574 0a28.84319573 28.84319573 0 1 1 57.68639033 0 28.84319573 28.84319573 0 1 1-57.68639033 0ZM776.50071734-33.63114779m-28.84319574 0a28.84319573 28.84319573 0 1 1 57.68639033 0 28.84319573 28.84319573 0 1 1-57.68639033 0Z"  horiz-adv-x="1597" />

    
    <glyph glyph-name="yingyongqiehuananniu" unicode="&#58922;" d="M247.379444 533.009704h115.717781V648.727484H247.379444v-115.71778z m202.503497 0h115.717781V648.727484H449.882941v-115.71778z m202.503136 115.71778v-115.71778h115.726451V648.727484h-115.726451zM247.379444 330.500427h115.717781V446.218207H247.379444v-115.71778z m202.503497 0h115.717781V446.218207H449.882941v-115.71778z m202.503136 0h115.726451V446.218207h-115.726451v-115.71778zM247.379444 127.994401h115.717781v115.71778H247.379444V127.994401z m202.503497 0h115.717781v115.71778H449.882941V127.994401z m202.503136 0h115.726451v115.71778h-115.726451V127.994401z"  horiz-adv-x="1024" />

    
    <glyph glyph-name="yingyongxuantingzhuangtai" unicode="&#58923;" d="M254.677304 493.658628h148.750691V642.40643H254.677304v-148.747802z m178.49122 0h148.750691V642.40643h-148.750691v-148.747802zM611.668776 642.40643v-148.747802H760.419467V642.40643h-148.750691zM254.677304 315.161628h148.750691v148.747801H254.677304v-148.747801z m178.49122 0h148.750691v148.747801h-148.750691v-148.747801z m178.500252 0H760.419467v148.747801h-148.750691v-148.747801zM254.677304 136.664266h148.750691v148.750692H254.677304V136.664266z m178.49122 0h148.750691v148.750692h-148.750691V136.664266z m178.500252 0H760.419467v148.750692h-148.750691V136.664266z"  horiz-adv-x="1024" />

    
    <glyph glyph-name="anniu-quanping" unicode="&#58924;" d="M466.977026 456.654919L292.776667 630.855279c-7.716542 7.716542-20.234021 7.716542-27.950563 0-7.716542-7.716542-7.716542-20.234021 0-27.950564l174.200359-174.200359c7.717264-7.716542 20.234021-7.716542 27.950925 0 7.654046 7.71618 7.654046 20.232938-0.000362 27.950563zM278.800121 636.627964c-10.877069 0-19.747425-8.870356-19.747425-19.747064v-82.027044c0-10.876346 8.870356-19.747064 19.747425-19.747064 10.876346 0 19.747064 8.871079 19.747064 19.747064V616.8809c0.000361 10.936313-8.808584 19.747064-19.747064 19.747064zM360.827165 636.627964H278.800121c-10.877069 0-19.747425-8.870356-19.747425-19.747064 0-10.876346 8.870356-19.747425 19.747425-19.747425h82.027044c10.875985 0 19.747064 8.871079 19.747064 19.747425 0.000361 10.877069-8.808584 19.747064-19.747064 19.747064zM758.750156 165.187041l-174.203249 174.200359c-7.713652 7.716542-20.231132 7.716542-27.947673 0s-7.716542-20.234021 0-27.950563l174.201082-174.200359c7.716542-7.716542 20.233299-7.716542 27.94984 0 7.717264 7.716542 7.717264 20.23366 0 27.950563zM744.471249 253.530082c-10.877069 0-19.747425-8.871079-19.747425-19.747426v-82.027043c0-10.873095 8.870356-19.747425 19.747425-19.747426 10.875985 0 19.747425 8.873969 19.747425 19.747426v82.027043c0 10.938481-8.811835 19.747425-19.747425 19.747426zM743.925409 170.956836h-82.027044c-10.876346 0-19.747425-8.870356-19.747426-19.747425 0-10.875985 8.871079-19.747064 19.747426-19.747064h82.027044c10.873095 0 19.747425 8.871079 19.747425 19.747064-0.000361 10.877069-8.812196 19.747425-19.747425 19.747425zM556.658478 428.703995c7.717264-7.716542 20.234021-7.716542 27.950563 0l174.201082 174.200359c7.716542 7.716542 7.716542 20.234021 0 27.950563-7.717625 7.716542-20.234021 7.716542-27.950924 0L556.658117 456.654558c-7.716542-7.717264-7.716542-20.234021 0.000361-27.950563zM744.773611 636.627964c-10.876346 0-19.747425-8.870356-19.747426-19.747064v-82.027044c0-10.876346 8.871079-19.747064 19.747426-19.747064 10.875985 0 19.747064 8.871079 19.747064 19.747064V616.8809c0.000361 10.936313-8.808584 19.747064-19.747064 19.747064zM744.773611 636.627964h-82.027044c-10.876346 0-19.747425-8.870356-19.747426-19.747064 0-10.876346 8.871079-19.747425 19.747426-19.747425h82.027044c10.875985 0 19.747064 8.871079 19.747064 19.747425 0.000361 10.877069-8.808584 19.747064-19.747064 19.747064zM264.826104 137.236116c7.716542-7.716542 20.234021-7.716542 27.950563 0l174.200359 174.20036c7.716542 7.716542 7.716542 20.234021 0 27.950563-7.716542 7.716542-20.233299 7.716542-27.950924 0l-174.200359-174.20036c-7.716542-7.716542-7.716542-20.23366 0.000361-27.950563zM278.800121 252.98388c-10.877069 0-19.747425-8.870356-19.747425-19.747064v-82.027044c0-10.875985 8.870356-19.747064 19.747425-19.747064 10.876346 0 19.747064 8.871079 19.747064 19.747064v82.027044c0.000361 10.939203-8.808584 19.747064-19.747064 19.747064zM360.827165 170.956836H278.800121c-10.877069 0-19.747425-8.870356-19.747425-19.747425 0-10.875985 8.870356-19.747064 19.747425-19.747064h82.027044c10.875985 0 19.747064 8.871079 19.747064 19.747064 0.000361 10.877069-8.808584 19.747425-19.747064 19.747425z"  horiz-adv-x="1024" />

    
    <glyph glyph-name="anniu-zhanshi" unicode="&#58925;" d="M617.112006 489.603299h105.280708c11.621232 0 21.054407-9.433175 21.054407-21.054408 0-11.624484-9.433175-21.056936-21.054407-21.056936h-126.337644c-11.624484 0-21.057659 9.432453-21.057659 21.056936V594.884006c0 11.624484 9.433175 21.056936 21.057659 21.056936s21.056936-9.432453 21.056936-21.056936v-105.280707z m0 0M611.04599 453.55761c-8.253712-8.254796-21.645042-8.254796-29.898754 0-8.253712 8.253712-8.253712 21.645042 0 29.898754l147.392051 147.392051c8.253712 8.253712 21.645765 8.253712 29.899838 0 8.254073-8.253712 8.254073-21.645042 0-29.899116l-147.393135-147.391689zM406.550592 489.603299V594.884006c0 11.624484 9.433175 21.056936 21.054407 21.056936 11.624484 0 21.057659-9.432453 21.057659-21.056936v-126.335115c0-11.624484-9.433175-21.056936-21.057659-21.056936H301.269884c-11.623761 0-21.056936 9.432453-21.056936 21.056936 0 11.621232 9.433175 21.054407 21.056936 21.054408h105.280708zM442.597003 483.540534c8.253712-8.254435 8.253712-21.645765 0-29.899838-8.253712-8.253712-21.645765-8.253712-29.899838 0L265.305114 601.032747c-8.253712 8.253712-8.253712 21.646126 0 29.899838 8.253712 8.254073 21.645042 8.254073 29.898754 0l147.393135-147.392051zM617.112006 279.041884v-105.280707c0-11.621232-9.432453-21.054407-21.056936-21.054408s-21.057659 9.433536-21.057659 21.054408v126.337643c0 11.624484 9.433175 21.057659 21.057659 21.057659h126.337644c11.621232 0 21.054407-9.433175 21.054407-21.057659s-9.433175-21.056936-21.054407-21.056936h-105.280708zM581.147236 285.1079c-8.253712 8.253712-8.253712 21.645042 0 29.898754 8.253712 8.253712 21.645042 8.253712 29.898754 0l147.392774-147.392051c8.254073-8.253712 8.254073-21.645042 0-29.898754-8.253712-8.254796-21.645765-8.254796-29.899838 0l-147.39169 147.392051zM301.269884 279.041884c-11.623761 0-21.056936 9.432453-21.056936 21.056936s9.433175 21.057659 21.056936 21.057659H427.604999c11.624484 0 21.057659-9.433175 21.057659-21.057659v-126.337643c0-11.621232-9.433175-21.054407-21.057659-21.054408-11.621232 0-21.054407 9.433536-21.054407 21.054408v105.280707H301.269884zM412.614079 315.006654c8.253712 8.253712 21.645042 8.253712 29.898754 0 8.253712-8.253712 8.253712-21.645042 0-29.898754L295.120782 137.715488c-8.253712-8.254796-21.645765-8.254796-29.899838 0-8.253712 8.253712-8.253712 21.645042 0 29.898754l147.393135 147.392412z m0 0"  horiz-adv-x="1024" />

    
    <glyph glyph-name="jiantou" unicode="&#58926;" d="M370.600994 690.210263l309.44629-281.820847c5.423001-5.380374 7.727379-12.528317 7.361077-19.578363 0.366302-7.050046-1.938076-14.197989-7.361077-19.582698l-309.44629-281.812177c-10.155664-10.096059-26.624074-10.096059-36.779738 0-10.159999 10.096059-10.159999 26.470906 0 36.566965l290.804995 264.828271-290.804995 264.832245c-10.159999 10.096059-10.159999 26.466571 0 36.566965 10.155664 10.095697 26.624435 10.095697 36.779738-0.000361z"  horiz-adv-x="1024" />

    
    <glyph glyph-name="sousuo" unicode="&#58927;" d="M480.149081 641.775697c-125.667535 0-227.552184-101.879953-227.552184-227.554713s101.884649-227.554713 227.552184-227.554712c125.67476 0 227.559409 101.879953 227.559409 227.554712s-101.884649 227.554713-227.559409 227.554713z m0.376055-430.406449c-111.820315 0-202.480739 90.652838-202.480738 202.478209s90.660063 202.47821 202.480738 202.47821c111.822843 0 202.480739-90.652838 202.480739-202.47821s-90.658256-202.47821-202.480739-202.478209z m273.942107-52.776001l-74.750498 74.757722c-5.161821 5.157125-13.535828 5.157125-18.690785 0-5.161821-5.16435-5.161821-13.531132 0-18.692952l74.753026-74.753027c5.161821-5.16435 13.526435-5.16435 18.688257 0 5.162183 5.159654 5.162183 13.523907 0 18.688257z"  horiz-adv-x="1024" />

    
    <glyph glyph-name="yingyongguanbi" unicode="&#58928;" d="M651.006846 184.086625c16.144735-16.147264 42.321588-16.147264 58.465962 0 16.144735 16.150153 16.144735 42.321588 0 58.47138l-146.169239 146.169239 146.169239 146.172129c16.144735 16.141845 16.144735 42.318698 0 58.465962-16.144735 16.141845-42.321588 16.141845-58.465962 0l-146.16671-146.169239-146.169239 146.1696c-16.155572 16.141845-42.329535 16.141845-58.47427 0-16.144735-16.147264-16.144735-42.324117 0-58.465962l146.16671-146.172129-146.16671-146.169238c-16.144735-16.150153-16.144735-42.321588 0-58.47138 16.144735-16.147264 42.318698-16.147264 58.47427 0l146.169239 146.172128 146.16671-146.17249z"  horiz-adv-x="1024" />

    
    <glyph glyph-name="yonghu-bangzhu" unicode="&#58929;" d="M628.98084588 820.56352745c-116.58113154 31.2261901-238.39665478 15.21951381-342.96632289-45.15098944-104.54190029-60.36598255-179.33055094-157.82860411-210.57094671-274.4413771-64.53425362-240.71228804 78.84327102-489.01593104 319.58784581-553.54114502 38.90471856-10.44230799 78.28470236-15.58113007 117.4180148-15.58113003 81.92733863 0 162.65617773 22.61908237 235.02006509 66.79951903 10.63021897 6.50715147 14.01132934 20.41322442 7.49513824 31.07056592-6.51167217 10.63473968-20.41322442 14.01132934-31.07508664 7.50030423-96.20471457-58.76389503-208.86360285-75.20515547-317.1759958-46.14349692-216.65642916 58.05938891-345.67521387 281.56133869-287.62486461 498.19968675 28.10983395 104.95323907 95.41755387 192.66966269 189.51650086 247.00440779 94.12219408 54.33926407 203.72930151 68.7399775 308.67866516 40.63401716 104.96292583-28.12339434 192.66514196-95.43111423 247.01344748-189.52618579 54.29341694-94.09959231 68.73481146-203.7254261 40.6068964-308.68318589-9.94379569-37.07403724-25.35057515-72.89016751-45.7960863-106.45007199-6.49811002-10.66186041-3.11635435-24.56341442 7.53194569-31.07056589 10.69866788-6.470344 24.56341442-3.09310905 31.07960554 7.54550607 22.65976345 37.24774256 39.78744895 77.0358368 50.84773308 118.27879046 64.50325749 240.74005586-78.87426717 489.06177814-319.5865552 553.55535066z m-94.37855216-233.19907052c0 12.47833607-10.10845955 22.59583525-22.59583709 22.59583528-12.48802102 0-22.59583525-10.1174992-22.59583526-22.59583528v-248.5645218c0-12.49706243 10.10845955-22.60035598 22.59583526-22.60035599 12.48737572 0 22.59583525 10.10393884 22.59583709 22.60035599v248.5645218z m-22.61391639-338.94334395c-12.46929463 0-22.59131455-10.12201991-22.59131634-22.600356v-45.19167055c0-12.48285679 10.12201991-22.59583525 22.59131634-22.59583527 12.48737572 0 22.59583525 10.11298028 22.59583529 22.59583527v45.19167055c0 12.47833607-10.10845955 22.60035598-22.59583529 22.600356z"  horiz-adv-x="1024" />

    
    <glyph glyph-name="yonghu-geren" unicode="&#58930;" d="M685.071109 297.652112c-5.485135 5.295482-14.377166 5.295482-19.859772 0-5.47502-5.295482-5.47502-13.889486 0.010115-19.187135 42.461751-40.980649 65.837154-95.456305 65.837154-153.399546 0-7.494376 6.281318-13.558225 14.048794-13.558225s14.048434 6.063849 14.048434 13.558225c0.000361 65.185107-26.31232 126.480335-74.084725 172.586681z m-178.782022 369.553023c-92.956493 0-168.58337-72.985458-168.58337-162.709175 0-63.994085 38.473251-119.471471 94.265282-146.027992-39.044379-11.53056-74.809742-32.18218-104.489582-60.83139-47.764819-46.091535-74.067385-107.386762-74.067385-172.571869 0-7.494376 6.291433-13.558225 14.048434-13.558225 7.767477 0 14.048434 6.063849 14.048433 13.558225 0 57.943602 23.385518 112.419258 65.837515 153.399545 40.866495 39.454752 94.719727 61.833843 152.258013 63.449328 2.216957-0.083809 4.44439-0.127158 6.682299-0.127158 92.956493 0 168.575784 72.985458 168.575784 162.709175s-75.619291 162.709536-168.575423 162.709536z m2.391799-298.279503a14.632205 14.632205 0 0 1-2.427201 0.205548c-2.166744-0.000361-4.329153-0.028177-6.487227-0.080557-74.441634 3.30069-133.963513 62.795837-133.963513 135.445699 0 74.762419 63.029201 135.592725 140.486142 135.592725 77.45947 0 140.478556-60.829945 140.478556-135.592725-0.000361-73.988634-61.726192-134.333427-138.086757-135.57069z"  horiz-adv-x="1024" />

    
    <glyph glyph-name="yonghu-shezhi" unicode="&#58931;" d="M511.994943 468.407645c-46.417377 0-84.176809-37.862026-84.17681-84.410174 0-46.545619 37.759432-84.415231 84.17681-84.41523 4.645964 0 9.419809 0.48479 15.040772 1.508556 6.549361 1.192829 10.882126 7.47523 9.686768 14.03001-1.187772 6.567062-7.431881 10.964129-13.991357 9.714946-4.158284-0.75175-7.580714-1.108298-10.735822-1.108298-33.134059 0-60.095896 27.036254-60.095896 60.270016 0 33.231595 26.961837 60.264959 60.095896 60.264959 33.144174 0 60.106011-27.033725 60.106011-60.264959 0-3.170642-0.348962-6.582595-1.10324-10.751356-1.205834-6.554418 3.134879-12.839349 9.666177-14.042653 6.55189-1.1903 12.824176 3.163056 14.011948 9.717474 1.020877 5.628188 1.508557 10.420456 1.508557 15.076535-0.000361 46.548147-37.772437 84.410173-84.189814 84.410174z m248.286528-36.889556c-0.892635 4.709905-4.461007 8.4477-9.114557 9.522402-26.410217 6.087691-48.35148 22.297811-61.789049 45.652984-13.432151 23.334221-16.47708 50.462953-8.573413 76.390909 1.405963 4.571548-0.038292 9.535407-3.624727 12.65981-24.211684 20.992273-51.853383 36.997568-82.172986 47.566495a11.993314 11.993314 0 0 1-12.759875-3.165584c-18.452725-19.83015-43.400625-30.753458-70.251921-30.753459-26.859244 0-51.807143 10.923308-70.251922 30.753459a12.006319 12.006319 0 0 1-12.767822 3.165584c-30.299374-10.569289-57.943602-26.574222-82.155286-47.571553-3.604135-3.124764-5.03069-8.088623-3.642788-12.6627 7.911614-25.933013 4.858737-53.061745-8.573414-76.382961-13.437208-23.354812-35.378471-39.565293-61.76051-45.652984-4.65355-1.074702-8.232037-4.812498-9.125034-9.517345-3.044929-16.056591-4.589249-32.05141-4.589249-47.525675 0-15.471737 1.54432-31.464026 4.589249-47.523146 0.892635-4.704847 4.471483-8.442643 9.125034-9.514816 26.392155-6.097806 48.33125-22.308287 61.770986-45.650455 13.422036-23.334221 16.474551-50.462953 8.573414-76.388019-1.387901-4.561072 0.028177-9.525292 3.632674-12.6627 24.22216-20.984326 51.855911-36.994678 82.155285-47.571914a12.08796 12.08796 0 0 1 3.955626-0.671915c3.283712 0 6.48506 1.34419 8.811835 3.842918 18.444778 19.83015 43.392678 30.748401 70.251922 30.748401 26.851658 0 51.799557-10.918251 70.251921-30.748401 3.258063-3.514547 8.242514-4.727967 12.767822-3.170642 30.283841 10.564231 57.917593 26.574222 82.147338 47.558909 3.604497 3.124764 5.03069 8.091152 3.632674 12.662339-7.893551 25.927956-4.848622 53.066803 8.583528 76.401024 13.437208 23.342168 35.378832 39.565293 61.789049 45.650455 4.65355 1.072173 8.221923 4.809969 9.114558 9.514816 3.055405 16.092354 4.589249 32.084644 4.589249 47.523146 0 15.440669-1.534205 31.43332-4.589611 47.520618z m-22.351636-83.112222c-29.188548-8.855545-54.182687-28.567569-69.405525-55.026554-15.207306-26.430808-19.760791-57.968889-12.852354-87.68088-18.57302-15.053415-39.213802-27.010605-61.529675-35.617253-22.372227 21.128101-51.237461 32.66986-82.147338 32.66986-30.430145 0-59.929001-11.823529-82.14481-32.682504-22.326349 8.619653-42.967132 20.576481-61.522089 35.629897 7.064857 29.981118 2.593735 60.83717-12.85994 87.68088-15.232954 26.458985-40.216978 46.171008-69.387463 55.026554-1.903397 12.059783-2.870448 23.998911-2.870448 35.591604 0 11.597752 0.967051 23.539408 2.870448 35.599191 29.160371 8.847959 54.144034 28.567569 69.376987 55.024025 15.225368 26.420332 19.760791 57.953717 12.85994 87.670765 18.555319 15.068949 39.206216 27.023249 61.532204 35.635316 22.215808-20.861503 51.714665-32.682504 82.144809-32.682504 30.909877 0 59.775111 11.543926 82.147339 32.677446 22.34405-8.611705 42.984833-20.561309 61.540151-35.62231-6.918914-29.704043-2.373014-61.242486 12.842239-87.678352 15.232954-26.456456 40.234679-46.176066 69.405525-55.024025 1.893282-12.082903 2.860333-24.024559 2.860334-35.59919 0-11.569936-0.967051-23.509063-2.860334-35.591966z"  horiz-adv-x="1024" />

    
    <glyph glyph-name="yonghu-tuichu" unicode="&#58932;" d="M378.912144 170.539599H312.368396c-14.685307 0-26.621184 11.973807-26.621184 26.684401V570.778889c0 14.713123 11.935876 26.681873 26.621184 26.681873h66.543748c7.345182 0 13.30427 5.971731 13.30427 13.339672s-5.959088 13.342201-13.30427 13.342201H312.368396c-29.3605 0-53.239478-23.940028-53.239478-53.363384v-373.554889c0-29.433833 23.879339-53.366274 53.239478-53.366275h66.543748c7.345182 0 13.30427 5.969203 13.30427 13.339672 0 7.375166-5.959088 13.34184-13.30427 13.34184z m382.050996 222.893576l-199.624018 200.117117c-5.205171 5.212757-13.622888 5.212757-18.828059 0-5.197946-5.210228-5.197946-13.650703 0-18.863822l176.912944-177.345714h-327.207593c-7.345182 0-13.30427-5.97426-13.30427-13.342201 0-7.372998 5.959088-13.339672 13.30427-13.339672h359.340283a13.309328 13.309328 0 0 1 12.30001 8.233121 13.415895 13.415895 0 0 1 1.014375 5.106551c0 3.467946-1.360808 6.8799-3.907942 9.43462z m-98.66849-80.047786l-119.783225-120.071859c-5.197946-5.210228-5.197946-13.653232 0-18.865989 5.205171-5.210589 13.622888-5.210589 18.828058 0l119.773471 120.071859c2.602766 2.607823 3.900356 6.019777 3.900356 9.434259 0 3.411953-1.29759 6.826435-3.900356 9.43173-5.195417 5.210228-13.623249 5.210228-18.818304 0z"  horiz-adv-x="1024" />

    
    <glyph glyph-name="yonghu-xiugaimima" unicode="&#58933;" d="M720.244754 428.42114c-8.219394 0-14.873877-6.625222-14.873877-14.807046v-236.906969c0-16.323912-13.346174-29.614094-29.749921-29.614094H318.628761c-16.406637 0-29.760759 13.290182-29.760758 29.614094V591.290347c0 16.334749 13.354122 29.614094 29.760758 29.614093h267.742069c8.219394 0 14.873516 6.63028 14.873516 14.807047 0 8.176767-6.654483 14.809576-14.873516 14.809576H318.628761c-32.818693 0-59.499843-26.572054-59.499843-59.230716v-414.583222c0-32.66408 26.681512-59.228187 59.499843-59.228188h356.992195c32.818693 0 59.499843 26.564107 59.499843 59.228188v236.906969c0.000361 8.181824-6.654122 14.807047-14.876045 14.807046z m40.267191 217.759571c-5.803753 5.785329-15.22031 5.785329-21.03201 0l-371.8686-370.1675c-5.820009-5.782439-5.820009-15.15348 0-20.936281 2.897903-2.892484 6.702529-4.337462 10.506793-4.337461 3.815102 0 7.619367 1.444978 10.517631 4.337461L760.511945 625.244792c5.812061 5.77991 5.812061 15.15348 0 20.935919z"  horiz-adv-x="1024" />

    
    <glyph glyph-name="yonghu-yijian" unicode="&#58934;" d="M730.899297 510.443849c-33.769488 58.477521-88.279462 100.309623-153.501778 117.78446-134.654935 36.067725-273.543654-44.118056-309.621855-178.757457-36.090845-134.637234 44.110109-273.541125 178.757458-309.624384 21.762085-5.828317 43.797994-8.712854 65.690488-8.712853 45.643591 0 90.626467 12.539516 130.956154 37.053199 5.956198 3.629423 7.855621 11.408459 4.231255 17.369715-3.634841 5.948612-11.390397 7.850563-17.364657 4.233784-53.721739-32.638071-116.565982-41.721922-176.968575-25.527336-121.173294 32.476594-193.352815 157.484497-160.888865 278.662849 32.471537 121.188827 157.499669 193.357873 278.665377 160.886335 58.69499-15.734 107.76354-53.376028 138.15142-106.010059 30.380293-52.628613 38.448325-113.939736 22.726969-172.65026-5.451901-20.351787-13.914051-40.091626-25.140805-58.679818-3.596188-5.976789-1.668949-13.740292 4.305311-17.35671 5.948612-3.604135 13.72223-1.679064 17.357071 4.295196 12.437284 20.615496 21.815911 42.548811 27.892403 65.201724 17.478449 65.224122 8.509473 133.348675-25.247371 191.831615z m-197.363351-79.538431c-3.130544 3.140659-7.709678 4.387313-11.996926 3.324894l-50.563018-12.639581c-6.772971-1.692069-10.893686-8.561854-9.188974-15.32471 1.68954-6.778029 8.536205-10.888629 15.311705-9.196921l30.132118 7.527972-32.804243-131.250567c-1.128889-4.468955 0.276352-9.19656 3.662657-12.332162a12.654753 12.654753 0 0 1 8.590031-3.371133c1.348887 0 2.690187 0.212412 4.003311 0.655298l37.915851 12.63958c6.616552 2.196005 10.19504 9.355508 7.983501 15.987594-2.201423 6.614024-9.30674 10.218159-15.980007 7.983501l-16.069235-5.354726 32.325594 129.34392c1.082649 4.310368-0.184235 8.863854-3.322365 12.007041z m14.400286 51.054672l3.222661 12.839348c1.679064 6.7755-2.442012 13.640227-9.207036 15.332296-6.793201 1.627767-13.630113-2.444541-15.337353-9.209565l-3.194485-12.8137c-1.707241-6.762495 2.406249-13.640227 9.189335-15.332296 1.036771-0.256122 2.055481-0.381474 3.081776-0.381474 5.654197 0 10.814574 3.826662 12.245102 9.565391z"  horiz-adv-x="1024" />

    
    <glyph glyph-name="icon" unicode="&#58935;" d="M626.134446 388.828031c0-8.380509-6.793923-15.172265-15.172264-15.172264h-2.581453c-8.378341 0-15.172265 6.791756-15.172265 15.172264v9.191864H410.799909v-9.191864c0-8.380509-6.793923-15.172265-15.174432-15.172264h-2.581452c-8.378341 0-15.170097 6.791756-15.170098 15.172264v9.191864H303.489731v-114.841401c0-57.003283 25.666415-82.570717 82.888973-82.570717h231.394018c57.220391 0 82.886806 25.567434 82.886806 82.570717v114.841401H626.134085v-9.191864z m-123.801346 149.457286c22.802108 0 41.304324-18.251873 41.481333-40.832178h41.148266c0 45.337617-37.140621 82.092429-82.956525 82.09243-45.814099 0-82.954358-36.754812-82.954359-82.09243h41.797423c0.177371 22.580304 18.681393 40.832177 41.483862 40.832178z m115.439622-41.658343h-231.394018c-57.222558 0-82.888973-25.567434-82.888973-82.568911v-0.233725h74.384196v9.851496c0 8.378341 6.791756 15.172265 15.170098 15.172265h2.581452c8.380509 0 15.174432-6.793923 15.174432-15.172265v-9.851496h182.408555v9.851496c0 8.378341 6.793923 15.172265 15.172265 15.172265h2.581453c8.378341 0 15.172265-6.793923 15.172264-15.172265v-9.851496h74.525443v0.233725c0 57.001477-25.666776 82.568911-82.887167 82.568911z"  horiz-adv-x="1024" />

    
    <glyph glyph-name="Mail-dagou" unicode="&#58936;" d="M458.120036 240.492771c-3.077802 0-6.163913 1.124554-8.514169 3.373662l-148.025674 141.465114-27.615689-26.387097c-4.700873-4.498215-12.316989-4.498215-17.017502 0-4.711349 4.492797-4.711349 11.778374 0 16.271531l36.119022 34.523044c4.700873 4.495687 12.327465 4.495687 17.028338 0l148.025674-141.465114 280.48352 268.052377c4.700873 4.495687 12.316989 4.495687 17.020391 0 4.708821-4.495687 4.708821-11.778374 0-16.271531l-288.989742-276.187963c-2.350617-2.249469-5.438896-3.374023-8.514169-3.374023z"  horiz-adv-x="1024" />

    
    <glyph glyph-name="Mail-gengduo" unicode="&#58937;" d="M705.20037 641.416259H305.92488c-29.356526 0-53.234781-24.513684-53.234782-54.656278v-273.281029c0-30.142594 23.877894-54.656278 53.234782-54.656279h220.710214l115.916827-118.972592c2.604211-2.669235 6.010384-4.002588 9.413668-4.002588 3.405812 0 6.809457 1.333353 9.403553 4.002588 5.200836 5.335941 5.200836 13.981965 0 19.320434l-119.812847 122.97771c-2.492948 2.5605-5.880698 4.002588-9.413668 4.002587H305.92488c-14.669051 0-26.612153 12.264609-26.612153 27.32814v273.28139c0 15.06353 11.94274 27.328139 26.612153 27.328139h399.27549c14.676999 0 26.6201-12.264609 26.6201-27.328139v-273.281029c0-15.06353-11.943101-27.328139-26.6201-27.328139h-53.104733c-7.356742 0-13.31005-6.111533-13.31005-13.665515 0-7.551092 5.953308-13.662625 13.31005-13.662624h53.104733c29.364474 0 53.232253 24.513684 53.232253 54.656278V586.760342c0 30.142594-23.867779 54.655917-53.232253 54.655917zM359.167247 450.119647c0-15.092069 11.914202-27.328139 26.612153-27.328139 14.705537 0 26.622629 12.23607 26.622628 27.328139s-11.917092 27.328139-26.622628 27.328139c-14.69759 0-26.612153-12.23607-26.612153-27.328139z m119.776723 0c0-15.092069 11.917092-27.328139 26.622628-27.328139 14.697951 0 26.612153 12.23607 26.612153 27.328139s-11.914202 27.328139-26.612153 27.328139c-14.705537 0-26.622629-12.23607-26.622628-27.328139z m173.02198 0c0 15.092069-11.914202 27.328139-26.619739 27.328139-14.697951 0-26.612153-12.23607-26.612152-27.328139s11.914202-27.328139 26.612152-27.328139c14.705176 0.000361 26.619739 12.23607 26.619739 27.328139z"  horiz-adv-x="1024" />

    
    <glyph glyph-name="Mail-xiaoxi" unicode="&#58938;" d="M742.226837 551.568273c-0.298388 3.849782-1.879916 7.614671-4.752531 10.559536-2.953173 3.028312-6.752019 4.657524-10.616973 4.895584-13.050315 9.891594-29.314983 15.763983-46.953825 15.763983H329.772429c-17.63848 0-33.902787-5.872028-46.95238-15.763622-3.867844-0.236254-7.670302-1.865827-10.626366-4.895945-2.874422-2.947754-4.455588-6.716978-4.751808-10.570373-9.718197-12.985291-15.474265-29.108351-15.474266-46.576686v-233.417348c0-42.97255 34.831908-77.808432 77.804458-77.808432h350.13108c42.97255 0 77.806626 34.835881 77.806626 77.808432v233.417348c0.000361 17.47303-5.75932 33.600064-15.482936 46.587523z m-419.748655-0.996673h364.721741c4.731218 0 9.265196-0.846034 13.459244-2.393244l-195.824088-200.800591-195.822282 200.798785c4.195854 1.548294 8.731638 2.39505 13.465385 2.39505z m403.620899-285.695915c0-21.486456-17.417038-38.903132-38.899158-38.903133H322.478182c-21.484288 0-38.89952 17.417038-38.89952 38.903133v246.792422c0 4.476902 0.758613 8.776072 2.150127 12.77902l206.980037-212.241923c3.336815-3.422068 7.75375-5.058144 12.126253-4.916898 4.372502-0.141247 8.789076 1.494829 12.126252 4.916898l206.985095 212.249148a38.841721 38.841721 0 0 0 2.153016-12.786245v-246.792422z"  horiz-adv-x="1024" />

    
    <glyph glyph-name="icon-wenhao" unicode="&#58883;" d="M508.976746 528.45116a83.279117 83.279117 0 0 1-64.029126-25.155976 90.524596 90.524596 0 0 1-22.487464-64.029125h30.681571a71.265212 71.265212 0 0 0 12.195972 43.829422c10.072939 12.97048 25.916757 20.109753 42.305332 19.057448a50.887776 50.887776 0 0 0 38.113091-13.338227 48.02636 48.02636 0 0 0 12.577808-35.446746 48.985825 48.985825 0 0 0-11.054079-30.109359c-2.665984-3.047458-6.858586-7.621534-12.956392-13.720063a152.424547 152.424547 0 0 1-38.112729-44.210535 70.88157 70.88157 0 0 1-7.242951-33.156817v-8.766679h30.872308v8.766679a54.513587 54.513587 0 0 0 7.240422 28.203434 76.233045 76.233045 0 0 0 17.533719 20.578649 411.39813 411.39813 0 0 1 31.251254 29.348579 74.112179 74.112179 0 0 1 13.147851 43.638323 69.558332 69.558332 0 0 1-21.532695 54.31129 82.143365 82.143365 0 0 1-58.503892 20.199703z m-5.335219-232.108559a22.855933 22.855933 0 0 1-16.28273-6.425093 22.864603 22.864603 0 0 1-6.965515-16.05912 22.868577 22.868577 0 0 1 6.695304-16.170383 22.875802 22.875802 0 0 1 16.171106-6.698194 24.007219 24.007219 0 0 1 16.388574 6.479641c5.839877 6.474222 7.486068 15.707629 4.247151 23.803477a22.867493 22.867493 0 0 1-19.490581 14.308891l-0.763309 0.760781z m0 0M505.996479 137.258875c-21.890327 0-43.924429 2.870809-65.691211 8.7031-134.677332 36.03449-214.883704 174.70863-178.783828 309.143567 17.479533 65.13056 59.31597 119.56106 117.791324 153.272749 58.512923 33.716746 126.658429 42.657184 191.877493 25.215581 134.66216-36.016789 214.858417-174.703573 178.781299-309.151153-6.18342-23.034027-15.767596-45.255254-28.447274-66.057151-3.64604-5.941025-11.407376-7.827082-17.383442-4.216445-5.963784 3.635925-7.847312 11.39979-4.213916 17.353097 11.442416 18.74425 20.054844 38.74852 25.629568 59.452159 15.717021 58.6166 7.652601 119.843914-22.738529 172.395944-30.39402 52.549501-79.456429 90.141677-138.174177 105.848583-58.707634 15.694263-120.02562 7.652963-172.683495-22.695902-52.635116-30.343446-90.29051-79.332883-106.020536-137.949483-32.482013-120.987614 39.707985-245.81056 160.912707-278.234413 60.588634-16.232156 123.608442-7.051852 177.432774 25.770815 5.963784 3.633396 13.737763 1.749868 17.383442-4.191158 3.64315-5.953669 1.747339-13.717534-4.203801-17.353097-40.473462-24.674799-85.637682-37.306793-131.468398-37.306793z"  horiz-adv-x="1024" />

    
    <glyph glyph-name="icon-wenhao1" unicode="&#58884;" d="M505.136356 641.206014c-139.656725 0-252.871082-113.213996-252.871081-252.871081s113.214357-252.871082 252.871081-252.871082 252.871082 113.214357 252.871082 252.871082-113.214357 252.871082-252.871082 252.871081z m13.909355-385.211162a24.01336 24.01336 0 0 0-16.392187-6.481086 22.88122 22.88122 0 0 0-16.174719 6.699639 22.872551 22.872551 0 0 0-6.696748 16.173996 22.867132 22.867132 0 0 0 23.253302 22.489631l0.763671-0.76078c8.695153-0.665412 16.256359-6.213765 19.495276-14.312142 3.239279-8.098377 1.592365-17.333951-4.248595-23.809258z m56.229136 152.86671a411.443286 411.443286 0 0 0-31.258117-29.355442 76.250023 76.250023 0 0 1-17.537693-20.583345 54.526591 54.526591 0 0 1-7.241867-28.209937v-8.768485h-30.879171v8.768485a70.903606 70.903606 0 0 0 7.244756 33.164404 152.450195 152.450195 0 0 0 38.121038 44.220288c6.09925 6.099973 10.292937 10.674772 12.959643 13.722953a48.994856 48.994856 0 0 1 11.056608 30.116223 48.036836 48.036836 0 0 1-12.580337 35.454693 50.900059 50.900059 0 0 1-38.12176 13.341478c-16.392187 1.052666-32.239618-6.088413-42.314724-19.061783a71.280745 71.280745 0 0 1-12.198501-43.839176h-30.688435a90.543742 90.543742 0 0 0 22.492522 64.043575 83.297179 83.297179 0 0 0 64.043575 25.161757 82.157092 82.157092 0 0 0 58.516535-20.2044 69.571337 69.571337 0 0 0 21.537392-54.323572 74.13277 74.13277 0 0 0-13.151464-43.647716z"  horiz-adv-x="1024" />

    
    <glyph glyph-name="icon-dagou" unicode="&#58885;" d="M577.446287 628.101151c-65.216897 17.461109-133.363847 8.509473-191.877132-25.245565-58.475354-33.752509-100.310707-88.247311-117.789517-153.451564-36.101682-134.593884 44.106135-273.430946 178.780577-309.509869 21.767504-5.837348 43.80269-8.711409 65.691572-8.711409 45.831077 0 90.995297 12.646805 131.469121 37.351949 5.950779 3.637009 7.847673 11.411711 4.203078 17.372604-3.644595 5.945722-11.419297 7.832501-17.382719 4.195493-53.822887-32.860958-116.844863-42.052461-177.434219-25.801159-121.204361 32.461783-193.395081 157.432117-160.912707 278.563506 15.730749 58.682708 53.385782 107.729222 106.02162 138.109876 52.656068 30.383183 113.975499 38.435682 172.683133 22.722273 58.720278-15.725691 107.781964-53.363023 138.172732-105.973574 30.393298-52.61308 38.458079-113.912281 22.739974-172.597518-5.574362-20.729288-14.187513-40.756677-25.629568-59.523686-3.632312-5.958365-1.75059-13.733067 4.215722-17.372604 5.976066-3.61425 13.738125-1.725303 17.38272 4.220779 12.679679 20.827907 22.265299 43.075505 28.448358 66.136264 36.076756 134.605805-44.118418 273.45551-178.782745 309.514204zM483.10117 285.977776c-1.848849 0-3.698059 0.736577-5.110163 2.209371l-88.814104 92.689895-16.567029-17.287712c-2.821319-2.945587-7.393589-2.945587-10.214547 0-2.823847 2.945587-2.823847 7.716542 0 10.6596l21.674303 22.622931c2.821319 2.945587 7.393589 2.945587 10.214547 0l88.816993-92.692424 168.288234 175.633777c2.821319 2.945587 7.393589 2.945587 10.217437 0 2.821319-2.945587 2.821319-7.716542 0-10.66249l-173.398036-180.963577c-1.412104-1.473155-3.258425-2.209371-5.107635-2.209371z"  horiz-adv-x="1024" />

    
    <glyph glyph-name="icon-rili" unicode="&#58886;" d="M406.217163 536.125798c-8.059363 0-14.104065 6.044703-14.104065 14.104065V616.721591c0 8.060085 6.044703 14.104788 14.104065 14.104788s14.104788-6.044703 14.104788-14.104788v-66.491728c2.01466-8.059363-6.045425-14.104065-14.104788-14.104065z m217.610377 0c-8.059363 0-14.104065 6.044703-14.104066 14.104065V616.721591c0 8.060085 6.044703 14.104788 14.104066 14.104788 8.060085 0 14.104788-6.044703 14.104787-14.104788v-66.491728c0-8.059363-6.044703-14.104065-14.104787-14.104065z m-261.937955-153.134031h48.35762v-48.357621h-48.35762v48.357621z m126.938754 0h48.357621v-48.357621h-48.357621v48.357621z m124.924456 0h48.358343v-48.357621h-48.358343v48.357621z m-251.86321-96.715241h48.35762v-48.357621h-48.35762v48.357621z m126.938754 0h48.357621v-48.357621h-48.357621v48.357621z m124.924456 0h48.358343v-48.357621h-48.358343v48.357621z m0 0M716.513461 594.558164H307.486539c-26.19347 0-48.357621-22.16415-48.357621-48.358344v-360.668578c0-26.194193 22.16415-48.357621 48.357621-48.357621h409.026922c26.19347 0 48.357621 22.163428 48.357621 48.357621V546.19982c0 26.194193-22.16415 48.358343-48.357621 48.358344zM319.575944 564.333928h384.848112c16.119448 0 30.223513-14.104065 30.223513-30.223513v-60.447026H289.352431v60.447026c0 16.119448 12.089405 30.223513 30.223513 30.223513z m384.848112-396.936794H319.575944c-16.118725 0-30.223513 14.104065-30.223513 30.223513v245.819229h445.295138v-245.819229c0-16.119448-14.104065-30.223513-30.223513-30.223513z m0 0"  horiz-adv-x="1024" />

    
    <glyph glyph-name="icon-suoxiao" unicode="&#58887;" d="M486.687966 636.875778c-125.677289 0-227.559048-101.881759-227.559048-227.559048s101.881759-227.559048 227.559048-227.559047 227.559048 101.881759 227.559048 227.559047-101.881759 227.559048-227.559048 227.559048z m0.373527-430.414397c-111.827178 0-202.482184 90.652477-202.482184 202.482184 0 111.827178 90.654644 202.482184 202.482184 202.482183 111.829707 0 202.482184-90.654644 202.482183-202.482183 0-111.830068-90.652477-202.482184-202.482183-202.482184z m273.938132-52.777085l-74.761696 74.759168c-5.161821 5.157125-13.528964 5.157125-18.690786 0-5.154958-5.161821-5.154958-13.531493 0-18.691146l74.761697-74.75664c5.162183-5.162183 13.528964-5.162183 18.690785 0 5.161821 5.159654 5.161821 13.526435 0 18.688618z m-173.197545 259.735087l-208.023672-0.001806c-7.296776-0.003251-13.213237-5.919712-13.216488-13.216488 0.005057-7.294969 5.922963-13.213237 13.216488-13.216488l208.022227 0.003251c7.300027 0 13.216488 5.916461 13.216488 13.216488 0.001445 7.298582-5.914655 13.215043-13.215043 13.215043z"  horiz-adv-x="1024" />

    
    <glyph glyph-name="icon1" unicode="&#58888;" d="M332.65085079 325.81908179000004c-15.93796748-15.95381044-24.72627131-37.13624369-24.72627133-59.68041919 0-22.54830928 8.78899216-43.73900817 24.72627133-59.68042109 31.90417541-31.88764606 87.48559174-31.88764606 119.37323779 0 17.32037481 17.29213436 56.11178611 55.87070787 101.73532905 101.25317641 66.21499359 65.81687209 146.80852928 145.9647574 197.01323152 196.12882171 75.2209535 75.21268976 75.2209535 197.59181659 0 272.79623881-36.44125136 36.43711949-84.9177738 56.49406658-136.44840253 56.49406659-51.54302619 0-100.01954866-20.05694708-136.46424352-56.49406659-38.21282625-38.22109187-76.92020452-76.52277132-119.54612406-118.68995464-51.94459124-51.37427183-109.70052606-108.5068479-179.53236798-178.31458319-56.94798067-56.92800587-88.30525502-132.62284823-88.30525501-213.11581963 0-80.50881429 31.35727435-156.20021317 88.30525501-213.12753071 117.52865075-117.49283488 308.83523679-117.49283488 426.38041883 0l161.69333442 161.65338292c9.42336979 9.41166063 24.68218794 9.41166063 34.11037792 0 9.42336979-9.41166063 9.42336979-24.67461059 0-34.09384663l-161.7091755-161.64925104c-68.16014303-68.14774553-157.73484358-102.24985781-247.29438949-102.24985783-89.57125507 0-179.10187225 34.07387182-247.29025576 102.24985783-66.05381654 66.02626443-102.438587 153.83283364-102.43858699 247.2179338s36.38477049 181.17169458 102.43858699 247.20553435c69.90416579 69.87592535 127.71589125 127.06911612 179.69285674 178.49917863 42.5811478 42.11896805 81.21620413 80.36072308 119.40147823 118.50535921 45.551221 45.56293017 106.13189105 70.63153043 170.55878042 70.63153045 64.41448995 0 124.99102813-25.06791193 170.55878041-70.63153045 94.02360969-93.99950299 94.02360969-246.96858994 0-340.98049042-50.20470226-50.19643664-130.85816237-130.38013968-197.08555537-196.22938411-45.60770187-45.33838322-84.37087274-83.88458634-101.6630071-101.1526121-25.03209414-25.05206898-58.36276033-38.84376035-93.78253149-38.84376034-35.43217055 0-68.76283669 13.79169137-93.79493085 38.84376034-25.07204379 25.04380333-38.87613266 58.35036092-38.87613264 93.77495604 0 35.42390492 13.80408886 68.7304625 38.87613264 93.77082229 0 0 290.8522439 291.05681601 300.34793562 300.47674229 9.49569175 9.41992435 24.90328941 9.41992435 34.3996714 0 9.50809117-9.41992435 9.50809117-24.68218794 0-34.09384855-9.4970703-9.41716913-300.65444875-300.47398517-300.6544487-300.47398516z m561.50220656-41.93092719a24.05607591 24.05607591 0 0 0-17.04692235 7.06494232c-9.42336979 9.41166063-9.42336979 24.67047874 0 34.08627121l48.24370986 48.22717859c9.41166063 9.41992435 24.68631979 9.41992435 34.09384663 0 9.42336979-9.41992435 9.42336979-24.67461059 0-34.09384662l-48.22786694-48.21960318c-4.71340574-4.70583033-10.88223091-7.06494422-17.0627672-7.06494232z"  horiz-adv-x="1024" />

    
    <glyph glyph-name="icon-weizhi" unicode="&#58889;" d="M511.998555 636.871082c-112.447074 0-203.932941-89.04241-203.932941-198.499103 0-152.267767 188.514669-298.590896 196.542603-304.734579a12.146482 12.146482 0 0 1 7.390338-2.508482 12.16924 12.16924 0 0 1 7.392867 2.508482c8.025406 6.144045 196.542603 152.467174 196.542603 304.734579 0.000361 109.456693-91.488396 198.499103-203.93547 198.499103z m0-478.787551c-34.75713 28.634038-179.9427 155.71151-179.9427 280.288448 0 96.489825 80.721868 174.99582 179.9427 174.995819 99.218304 0 179.9427-78.505995 179.9427-174.995819 0-124.576938-145.188099-251.65441-179.9427-280.288448z m0 360.841976c-46.24976 0-83.875532-36.85596-83.875532-82.154563 0-45.296074 37.625772-82.144448 83.875532-82.144449 4.589249 0 9.333833 0.456252 14.946487 1.443533 6.524796 1.140087 10.857562 7.258123 9.686408 13.640588-1.166097 6.387524-7.426824 10.67116-13.925611 9.48953-4.172012-0.735855-7.582159-1.083011-10.707284-1.083011-33.02099 0-59.882401 26.311959-59.882401 58.65417 0 32.339321 26.861411 58.656699 59.882401 58.656698 33.010513 0 59.869396-26.317377 59.869396-58.656698 0-3.125125-0.350046-6.452548-1.090958-10.486925-1.192107-6.366933 3.132711-12.492554 9.65534-13.653594 6.501677-1.256769 12.754456 3.052515 13.941144 9.460991 1.018348 5.444314 1.487243 10.106173 1.487244 14.679889 0.000361 45.297519-37.627939 82.153841-83.862166 82.153841z"  horiz-adv-x="1024" />

    
    <glyph glyph-name="icon-cebianlanjiantou" unicode="&#58890;" d="M629.547845 443.171472H392.803436a14.803796 14.803796 0 0 1-12.816229-7.39973 14.805241 14.805241 0 0 1 0-14.796571 14.802351 14.802351 0 0 1 12.816229-7.397563H629.547845c8.170626 0 14.797293 6.623777 14.797293 14.797293 0 8.169903-6.626667 14.796571-14.797293 14.796571z m0 0M588.264834 484.748535a14.798016 14.798016 0 0 1-14.881824-14.796571c0-3.945511 1.575026-7.72774 4.37756-10.504264l41.873283-41.876174c5.802308-5.760403 15.175155-5.726446 20.937726 0.075861 5.760403 5.802308 5.726446 15.175155-0.072971 20.935558l-41.876174 41.876174a14.799461 14.799461 0 0 1-10.3576 4.289416z m0 0"  horiz-adv-x="1024" />

    


  </font>
</defs>
</svg>
